<svg xmlns="http://www.w3.org/2000/svg" viewBox="0 0 1000 1000"><path d="M262.3 419.9h50.2v175.9c0 8.4-1.3 15.9-3.8 22.8-2.5 6.8-6.1 12.6-10.7 17.5-4.6 4.8-10.3 8.6-17 11.4-6.7 2.7-14.2 4.1-22.6 4.1-8.8 0-15.3-.7-19.6-2s-7-2.2-8.1-2.6v-41.6c1.1.4 2.9.9 5.4 1.3 2.5.4 5.7.7 9.4.7 5.7 0 10-1.5 12.7-4.6s4.1-7.2 4.1-12.2V419.9zm-4.3-50.1c0-8.4 2.9-15.3 8.6-21 5.7-5.6 12.5-8.4 20.5-8.4 8.4 0 15.4 2.8 21.1 8.4s8.6 12.6 8.6 21c0 8.1-2.9 15.1-8.6 20.8-5.7 5.7-12.8 8.6-21.1 8.6-4 0-7.7-.8-11.2-2.3s-6.6-3.6-9.2-6.3c-2.6-2.6-4.7-5.8-6.3-9.4-1.6-3.7-2.4-7.5-2.4-11.4zm110.2 0c0-4 .8-7.8 2.3-11.4s3.6-6.8 6.3-9.4 5.7-4.7 9.2-6.3c3.5-1.5 7.3-2.3 11.2-2.3 8.4 0 15.4 2.9 21.1 8.6s8.6 12.7 8.6 20.8c0 8.1-2.9 15.1-8.6 20.8-5.7 5.7-12.8 8.6-21.1 8.6-4 0-7.7-.8-11.2-2.3s-6.6-3.6-9.2-6.3c-2.6-2.6-4.7-5.8-6.3-9.4-1.6-3.7-2.3-7.5-2.3-11.4zm4.3 214.1v-164h50.2v164h-50.2zm109.8 0v-164h47.9v18.8c2-3.5 4.7-6.8 8.3-9.7 3.5-3 7.4-5.5 11.7-7.6s8.8-3.7 13.5-4.8c4.7-1.1 9.3-1.6 13.7-1.6 11.9 0 21.9 2.3 30 6.8s14.3 10.8 18.5 19c6.4-9.2 13.6-15.8 21.8-19.8 8.1-4 17.8-5.9 29-5.9 7.7 0 15.2 1.2 22.6 3.5 7.4 2.3 13.9 6 19.5 11.1s10.1 11.5 13.5 19.5c3.4 7.9 5.1 17.5 5.1 28.7v106.3h-48.5v-95c0-7.7-2.1-14.2-6.3-19.6s-10.8-8.1-19.8-8.1-15.8 2.9-20.5 8.6c-4.6 5.7-6.9 12.2-6.9 19.5v94.7h-49.5v-95c0-7.7-2.1-14.2-6.3-19.6s-10.9-8.1-20.1-8.1c-8.8 0-15.5 2.9-20.1 8.6s-6.9 12.3-6.9 19.8v94.4h-50.2v-.5z"/><path d="M947.7 975.5H52.3c-20.7 0-37.5-16.8-37.5-37.5V62c0-20.7 16.8-37.5 37.5-37.5h895.3c20.7 0 37.5 16.8 37.5 37.5v875.9c.1 10-3.7 19.4-10.7 26.5-7.1 7.1-16.6 11.1-26.7 11.1zm-881.9-51h868.3v-849H65.8v849z"/></svg>